<svg xmlns="http://www.w3.org/2000/svg" viewBox="0 0 18.23 18.23"><defs><style>.cls-1{fill:#111;}</style></defs><g id="Calque_2" data-name="Calque 2"><g id="Calque_1-2" data-name="Calque 1"><g id="Calque_2-2" data-name="Calque 2"><g id="Calque_1-2-2" data-name="Calque 1-2"><path class="cls-1" d="M11.73,9.06l5.83-5.83A1.94,1.94,0,0,0,17.84.74,1.84,1.84,0,0,0,15.26.37a1.54,1.54,0,0,0-.19.17L9.14,6.47a.06.06,0,0,1-.08,0L3.23.64A1.91,1.91,0,0,0,.74.36,1.83,1.83,0,0,0,.37,2.93a1.63,1.63,0,0,0,.17.2L6.47,9.06a.06.06,0,0,1,0,.08L.64,15a1.91,1.91,0,0,0-.28,2.49,1.83,1.83,0,0,0,2.56.38l.21-.18,5.93-5.93a.06.06,0,0,1,.08,0L15,17.57a2,2,0,0,0,2.49.27,1.83,1.83,0,0,0,.38-2.56l-.18-.21-6-5.93A.06.06,0,0,1,11.73,9.06Z"/></g></g></g></g></svg>