<svg xmlns="http://www.w3.org/2000/svg" viewBox="0 0 41.46 19.04"><g id="Calque_2" data-name="Calque 2"><g id="LOGO_2" data-name="LOGO 2"><g id="FULL_NOIR" data-name="FULL NOIR"><path d="M40.86,12.08,32.93,4.14,29,8.09l-3-3H22.28l1.81-1.8L21.38.61V0L18.07,3.3v7.88l-4.8-4.81v-.6L0,19H6.17l6.8-6.8,2.08,2.08-3.11,3.11h6.13V19H24.2l8.73-8.73L35,12.39,31.9,15.5H38l3.42-3.42ZM22.14,14.92V8.58h6.33Z"/><polygon points="17.79 19.04 10.34 19.04 11.65 17.72 17.79 17.72 17.79 19.04"/><polygon points="17.79 3.59 17.79 10.49 16.47 9.18 16.47 4.9 17.79 3.59"/><polygon points="37.74 15.8 36.43 17.11 28.4 17.11 27.78 17.72 35.82 17.72 34.51 19.04 26.3 19.04 26.3 19.04 24.61 19.04 27.85 15.8 37.74 15.8"/></g></g></g></svg>