<svg xmlns="http://www.w3.org/2000/svg" viewBox="0 0 86.57 20.16"><defs><style>.cls-1,.cls-2{fill:#feefe9;}.cls-2{fill-rule:evenodd;}</style></defs><g id="Calque_2" data-name="Calque 2"><g id="Calque_1-2" data-name="Calque 1"><path class="cls-1" d="M18.87,5.9a6.86,6.86,0,0,0,1.29.66,3.36,3.36,0,0,0,1.19.24,1.7,1.7,0,0,0,.8-.15.49.49,0,0,0,.28-.45A.29.29,0,0,0,22.31,6,1.06,1.06,0,0,0,22,5.81a4,4,0,0,0-.46-.1L21,5.62l-.62-.12a5.25,5.25,0,0,1-.73-.19A4.73,4.73,0,0,1,18.9,5a2.58,2.58,0,0,1-.65-.49,2.29,2.29,0,0,1-.46-.71,2.48,2.48,0,0,1-.18-1,2.6,2.6,0,0,1,.33-1.37,2.51,2.51,0,0,1,.82-.86A3.19,3.19,0,0,1,19.87.14,5.49,5.49,0,0,1,21.06,0a5.07,5.07,0,0,1,1.8.3,5.65,5.65,0,0,1,1.53.85.31.31,0,0,1,.11.21.26.26,0,0,1-.06.21l-.93,1.34a.37.37,0,0,1-.2.12.26.26,0,0,1-.21,0A4.89,4.89,0,0,0,22,2.44a3.27,3.27,0,0,0-1-.16h-.31a1.66,1.66,0,0,0-.33,0,.65.65,0,0,0-.26.14.35.35,0,0,0-.1.27c0,.11.08.21.25.3a3.52,3.52,0,0,0,.58.22,3.72,3.72,0,0,0,.62.15l.38.07a9,9,0,0,1,.95.25,3,3,0,0,1,1,.48,2.58,2.58,0,0,1,.75.82,2.4,2.4,0,0,1,.31,1.28,2.77,2.77,0,0,1-.25,1.24,2.28,2.28,0,0,1-.7.86,3,3,0,0,1-1.08.5,5.55,5.55,0,0,1-1.4.16A6.22,6.22,0,0,1,20.2,9a6.11,6.11,0,0,1-1-.28,5,5,0,0,1-.87-.43,6,6,0,0,1-.74-.52.3.3,0,0,1-.05-.42L18.47,6a.25.25,0,0,1,.19-.12A.25.25,0,0,1,18.87,5.9Z"/><path class="cls-1" d="M29.74,6.55h-1a.31.31,0,0,0-.29.29V8.63a.28.28,0,0,1-.08.2.29.29,0,0,1-.21.09h-1.8a.25.25,0,0,1-.2-.09.24.24,0,0,1-.08-.2V.42a.24.24,0,0,1,.08-.2.25.25,0,0,1,.2-.09H30a3.33,3.33,0,0,1,1.26.25,3.08,3.08,0,0,1,1,.7,3.48,3.48,0,0,1,.7,1,3.12,3.12,0,0,1,.26,1.26A3.71,3.71,0,0,1,33,4.63a2.57,2.57,0,0,1-.66,1,3.07,3.07,0,0,1-1.09.68A4.47,4.47,0,0,1,29.74,6.55Zm.08-4.21H28.69a.28.28,0,0,0-.2.08.29.29,0,0,0-.09.21V4a.29.29,0,0,0,.09.21.28.28,0,0,0,.2.08H30A.78.78,0,0,0,30.65,4a1.13,1.13,0,0,0,.21-.66A1,1,0,0,0,30.79,3a1.09,1.09,0,0,0-.19-.33,1.14,1.14,0,0,0-.33-.23A1.06,1.06,0,0,0,29.82,2.34Z"/><path class="cls-1" d="M36,.41a.48.48,0,0,1,.16-.19.46.46,0,0,1,.25-.08H38.1a.4.4,0,0,1,.23.08.41.41,0,0,1,.16.19L42,8.57a.27.27,0,0,1,0,.23.27.27,0,0,1-.26.12h-2a.46.46,0,0,1-.25-.08.61.61,0,0,1-.17-.19l-.32-.72a.52.52,0,0,0-.18-.18.34.34,0,0,0-.23-.08H36a.48.48,0,0,0-.41.26l-.34.72a.48.48,0,0,1-.16.19.43.43,0,0,1-.23.08H32.78l-.13,0a.18.18,0,0,1-.1-.07.23.23,0,0,1-.06-.12.41.41,0,0,1,0-.17Zm.71,5.22h1.06A.22.22,0,0,0,38,5.55a.19.19,0,0,0,0-.19l-.28-.7c-.12-.27-.22-.52-.32-.75,0-.07-.07-.11-.11-.11s-.07,0-.1.11l-.6,1.45a.21.21,0,0,0,0,.19A.19.19,0,0,0,36.72,5.63Z"/><path class="cls-1" d="M50.85,6.59a8,8,0,0,1-.76,1,4.16,4.16,0,0,1-1,.78,4.26,4.26,0,0,1-1.15.5,5.23,5.23,0,0,1-1.41.18,4.52,4.52,0,0,1-1.8-.36,4.76,4.76,0,0,1-1.47-1,4.51,4.51,0,0,1-1-1.44A4.36,4.36,0,0,1,42,4.54a4.38,4.38,0,0,1,.36-1.77,4.51,4.51,0,0,1,1-1.44,4.76,4.76,0,0,1,1.47-1A4.52,4.52,0,0,1,46.58,0,5.23,5.23,0,0,1,48,.18a4.6,4.6,0,0,1,1.15.5,4.15,4.15,0,0,1,.93.79,7.62,7.62,0,0,1,.76,1,.26.26,0,0,1,0,.21.25.25,0,0,1-.15.15L49,3.52a.33.33,0,0,1-.24,0,.38.38,0,0,1-.18-.15,2.41,2.41,0,0,0-.84-.84,2.24,2.24,0,0,0-1.19-.3,2.11,2.11,0,0,0-.86.19,2.24,2.24,0,0,0-.7.52,2.46,2.46,0,0,0-.47.74,2.34,2.34,0,0,0-.16.86,2.28,2.28,0,0,0,.16.87,2.41,2.41,0,0,0,.47.73,2.38,2.38,0,0,0,.7.51,2,2,0,0,0,.86.19,2.34,2.34,0,0,0,1.2-.32,2.44,2.44,0,0,0,.84-.82.37.37,0,0,1,.18-.14.24.24,0,0,1,.23,0l1.7.67a.25.25,0,0,1,.15.15A.26.26,0,0,1,50.85,6.59Z"/><path class="cls-1" d="M54.12,2.63v.5a.32.32,0,0,0,.08.21.3.3,0,0,0,.2.08h3.26a.28.28,0,0,1,.2.08.29.29,0,0,1,.09.21V5.36a.29.29,0,0,1-.09.21.28.28,0,0,1-.2.08H54.4a.27.27,0,0,0-.2.09.28.28,0,0,0-.08.2V6.4a.3.3,0,0,0,.08.2.26.26,0,0,0,.2.08h3.74a.27.27,0,0,1,.2.09.25.25,0,0,1,.09.2V8.63a.25.25,0,0,1-.09.2.27.27,0,0,1-.2.09H52a.29.29,0,0,1-.21-.09.28.28,0,0,1-.08-.2V.42a.28.28,0,0,1,.08-.2A.29.29,0,0,1,52,.13h6.11a.27.27,0,0,1,.2.09.25.25,0,0,1,.09.2V2.05a.29.29,0,0,1-.09.21.3.3,0,0,1-.2.08H54.4a.3.3,0,0,0-.2.08A.32.32,0,0,0,54.12,2.63Z"/><path class="cls-2" d="M71.49,14.27,68.21,18c-.83.94-1.9,1.76-4.85,2V14.27ZM60.74,18.7l1.56-.36V15.66l-1.56-.37Zm0-17.26,1.56.37V4.49l-1.56.37Zm0,10.34,1.56-.37V8.73l-1.56-.36ZM82.61,7.09a6.53,6.53,0,0,1,4,3,6.52,6.52,0,0,1-4,3,7.4,7.4,0,0,0-.57-.55,9.6,9.6,0,0,0,1.59-1.85l.4-.59-.4-.58A9.31,9.31,0,0,0,82,7.64a7.4,7.4,0,0,0,.57-.55Zm-9.72,7.18h4.47a6.78,6.78,0,0,0,3.82-1.1,6.8,6.8,0,0,1,1.45,1.61A5.31,5.31,0,0,1,78,17.47H70.08l2.81-3.2Zm0-8.39h4.47A6.78,6.78,0,0,1,81.18,7a7,7,0,0,0,1.45-1.61A5.28,5.28,0,0,0,78,2.68H70.08l2.81,3.2Zm-9.54,4.19V6.93h14a6.2,6.2,0,0,1,5.4,3.14,6.19,6.19,0,0,1-5.4,3.15h-14Zm15.7,0a1.83,1.83,0,0,1-1.83,1.83,2,2,0,0,1-.35,0,2.6,2.6,0,0,0,.67-1.8,2.57,2.57,0,0,0-.67-1.79,2,2,0,0,1,.35,0,1.82,1.82,0,0,1,1.83,1.82ZM71.49,5.88,68.21,2.14c-.83-1-1.9-1.76-4.86-2V5.88Z"/></g><g id="_Calque_" data-name="&lt;Calque&gt;"><path class="cls-1" d="M7.79,11.51v8.21A.31.31,0,0,1,7.5,20H5.7a.26.26,0,0,1-.21-.09.28.28,0,0,1-.08-.2V17.15a.28.28,0,0,0-.08-.2.29.29,0,0,0-.21-.09H2.66a.29.29,0,0,0-.21.09.27.27,0,0,0-.07.2v2.57a.25.25,0,0,1-.09.2.27.27,0,0,1-.2.09H.29a.26.26,0,0,1-.21-.09.28.28,0,0,1-.08-.2V11.51a.28.28,0,0,1,.08-.2.26.26,0,0,1,.21-.09h1.8a.27.27,0,0,1,.2.09.25.25,0,0,1,.09.2v2.83a.31.31,0,0,0,.07.21.32.32,0,0,0,.21.08H5.12a.27.27,0,0,0,.29-.29V11.51a.28.28,0,0,1,.08-.2.26.26,0,0,1,.21-.09H7.5a.31.31,0,0,1,.29.29Z"/><path class="cls-1" d="M9.18,15.61a4.36,4.36,0,0,1,.36-1.76,4.79,4.79,0,0,1,1-1.45,4.62,4.62,0,0,1,1.44-1,4.51,4.51,0,0,1,3.53,0,4.48,4.48,0,0,1,2.42,2.42,4.51,4.51,0,0,1,0,3.53,4.57,4.57,0,0,1-2.42,2.42,4.51,4.51,0,0,1-3.53,0,4.49,4.49,0,0,1-1.44-1,4.62,4.62,0,0,1-1-1.44A4.38,4.38,0,0,1,9.18,15.61Zm2.38,0a2.28,2.28,0,0,0,.16.87,2.49,2.49,0,0,0,.47.72,2.19,2.19,0,0,0,.69.5,2,2,0,0,0,.84.18,2,2,0,0,0,.84-.18,2.44,2.44,0,0,0,.69-.5,2.28,2.28,0,0,0,.64-1.59,2.26,2.26,0,0,0-.17-.85,2.09,2.09,0,0,0-.47-.72,2.44,2.44,0,0,0-.69-.5,2,2,0,0,0-.84-.18,2,2,0,0,0-.84.18,2.19,2.19,0,0,0-.69.5,2.21,2.21,0,0,0-.63,1.57Z"/><path class="cls-1" d="M21.6,20H19.8a.31.31,0,0,1-.29-.29V11.51a.31.31,0,0,1,.29-.29h3.73a3.4,3.4,0,0,1,1.29.24,2.84,2.84,0,0,1,1,.65,3.14,3.14,0,0,1,.65,1,3.42,3.42,0,0,1,.23,1.27,3.29,3.29,0,0,1-.09.76,3.34,3.34,0,0,1-.26.71,2.89,2.89,0,0,1-.39.61,2.44,2.44,0,0,1-.52.45.41.41,0,0,0-.13.17.21.21,0,0,0,.05.2c.3.4.62.81,1,1.24l.9,1.16a.23.23,0,0,1,0,.21.14.14,0,0,1-.15.12H24.86a.63.63,0,0,1-.25-.07.45.45,0,0,1-.21-.16l-.76-1-.75-1.05a.67.67,0,0,0-.2-.16.61.61,0,0,0-.25-.06h-.27a.26.26,0,0,0-.2.08.3.3,0,0,0-.08.2v1.95a.31.31,0,0,1-.29.29Zm.57-4.73h1.27a.84.84,0,0,0,.3-.06.78.78,0,0,0,.28-.16.93.93,0,0,0,.22-.29.8.8,0,0,0,.08-.39,1,1,0,0,0,0-.28,1,1,0,0,0-.14-.32.85.85,0,0,0-.28-.25.77.77,0,0,0-.42-.1H22.17a.3.3,0,0,0-.2.08.32.32,0,0,0-.08.21V15a.28.28,0,0,0,.08.2A.27.27,0,0,0,22.17,15.28Z"/><path class="cls-1" d="M30.32,20h-1.8a.26.26,0,0,1-.21-.09.27.27,0,0,1-.07-.2v-8.2a.27.27,0,0,1,.07-.2.26.26,0,0,1,.21-.09h1.8a.29.29,0,0,1,.21.09.28.28,0,0,1,.08.2v8.2a.28.28,0,0,1-.08.2A.29.29,0,0,1,30.32,20Z"/><path class="cls-1" d="M39.12,20H32.33a.29.29,0,0,1-.21-.09.28.28,0,0,1-.08-.2V18.38a.74.74,0,0,1,.06-.27,1.36,1.36,0,0,1,.13-.24l3.67-4.1a.24.24,0,0,0,.05-.21.14.14,0,0,0-.15-.11H32.33a.28.28,0,0,1-.21-.08.3.3,0,0,1-.08-.2V11.51a.28.28,0,0,1,.08-.2.29.29,0,0,1,.21-.09h6.79a.26.26,0,0,1,.21.09.28.28,0,0,1,.08.2v1.36a.69.69,0,0,1-.06.26.67.67,0,0,1-.12.24L35.56,17.5a.21.21,0,0,0-.05.2.13.13,0,0,0,.14.1h3.47a.29.29,0,0,1,.21.08.32.32,0,0,1,.08.21v1.63a.28.28,0,0,1-.08.2A.26.26,0,0,1,39.12,20Z"/><path class="cls-1" d="M39.84,15.61a4.36,4.36,0,0,1,.36-1.76,4.79,4.79,0,0,1,1-1.45,4.62,4.62,0,0,1,1.44-1,4.51,4.51,0,0,1,3.53,0,4.57,4.57,0,0,1,2.42,2.42,4.51,4.51,0,0,1,0,3.53,4.66,4.66,0,0,1-2.42,2.42,4.51,4.51,0,0,1-3.53,0,4.49,4.49,0,0,1-1.44-1,4.62,4.62,0,0,1-1-1.44A4.38,4.38,0,0,1,39.84,15.61Zm2.38,0a2.28,2.28,0,0,0,.16.87,2.49,2.49,0,0,0,.47.72,2.19,2.19,0,0,0,.69.5,2,2,0,0,0,.84.18,2,2,0,0,0,.84-.18,2.44,2.44,0,0,0,.69-.5,2.28,2.28,0,0,0,.64-1.59,2.26,2.26,0,0,0-.17-.85,2.09,2.09,0,0,0-.47-.72,2.44,2.44,0,0,0-.69-.5,2,2,0,0,0-.84-.18,2,2,0,0,0-.84.18,2.19,2.19,0,0,0-.69.5,2.21,2.21,0,0,0-.63,1.57Z"/><path class="cls-1" d="M58.42,11.51v8.21a.31.31,0,0,1-.29.29H56.36a.56.56,0,0,1-.26-.08.64.64,0,0,1-.2-.16l-3.13-4.41a.15.15,0,0,0-.15-.08s-.07.06-.07.14v4.3a.31.31,0,0,1-.29.29h-1.8a.31.31,0,0,1-.29-.29V11.51a.31.31,0,0,1,.29-.29h1.8a.5.5,0,0,1,.25.07.58.58,0,0,1,.21.16l3.12,4.4a.14.14,0,0,0,.15.09s.07,0,.07-.13v-4.3a.31.31,0,0,1,.29-.29h1.78a.31.31,0,0,1,.29.29Z"/><text/></g></g></svg>